<svg xmlns="http://www.w3.org/2000/svg" viewBox="0 0 382.62 158.16"><defs><style>.cls-1{fill:#e21f26;}.cls-2{fill:#353436;}.cls-3{fill:#6f7072;}</style></defs><title>logo-espiro</title><g id="Warstwa_2" data-name="Warstwa 2"><g id="Layer_1" data-name="Layer 1"><polygon class="cls-1" points="114.07 35.23 114.05 82.32 127.4 82.32 127.4 47.87 191.37 47.81 191.37 0 0 0 0 82.32 95.69 82.32 95.69 68.03 13.38 68.21 13.38 47.87 67.62 47.85 67.62 34.47 13.44 34.43 13.44 14.03 178 14.09 178 35.23 114.07 35.23"/><path class="cls-2" d="M224.56,50.82c5.62,0,8.45,4.36,8.45,8.72s-2.83,8.68-8.45,8.68h-5.74v8.68H215V50.82Zm0,13.67a4.94,4.94,0,0,0,0-9.87h-5.74v9.87Z"/><path class="cls-2" d="M239.87,63.67h4.39a4.53,4.53,0,1,0,0-9.05h-5.77V76.89h-3.72V50.82h9.5a8.07,8.07,0,0,1,8.49,8.31,7.85,7.85,0,0,1-6.74,8l8.23,9.8h-4.88l-9.5-11.43Z"/><path class="cls-2" d="M257.84,54.43a13.18,13.18,0,0,1,18.81,0,13.4,13.4,0,0,1,0,18.85,13.18,13.18,0,0,1-18.81,0,13.4,13.4,0,0,1,0-18.85ZM274,57.11a9.59,9.59,0,0,0-6.74-2.83,9.35,9.35,0,0,0-6.67,2.83,9.53,9.53,0,0,0,0,13.48,9.35,9.35,0,0,0,6.67,2.83A9.59,9.59,0,0,0,274,57.11Z"/><path class="cls-2" d="M291.8,50.82c5.62,0,8.45,4.36,8.45,8.72s-2.83,8.68-8.45,8.68h-5.74v8.68h-3.8V50.82Zm0,13.67a4.94,4.94,0,0,0,0-9.87h-5.74v9.87Z"/><path class="cls-2" d="M305.8,73.13h12.1v3.76H302v-26h15.87v3.76H305.8V62h11.81v3.8H305.8Z"/><path class="cls-2" d="M325.71,63.67h4.39a4.53,4.53,0,1,0,0-9.05h-5.77V76.89H320.6V50.82h9.5a8.07,8.07,0,0,1,8.49,8.31,7.85,7.85,0,0,1-6.74,8l8.23,9.8H335.2l-9.5-11.43Z"/><path class="cls-2" d="M346.51,76.95V54.56h-7.9v-3.8h19.52v3.8h-7.86V76.95Z"/><path class="cls-2" d="M363.92,50.84,371,62.27l7.11-11.44h4.47l-9.68,15.42V76.87h-3.8V66.26l-9.65-15.42Z"/><path class="cls-2" d="M220.88,37.53h17.86v5.55H215.28V4.68h23.41v5.55h-17.8V21.05H238.3v5.6H220.88Z"/><path class="cls-2" d="M263.84,14.57c-.77-3.46-4.51-4.94-7.86-4.89-2.58.05-5.44.93-7,2.91a5,5,0,0,0-.93,3.57c.27,4,4.61,4.45,8.73,4.83,5.27.66,11.81,2,13.29,8.19a13.58,13.58,0,0,1,.27,2.53c0,7.42-7.36,11.7-14.28,11.7-5.93,0-13.13-3.52-13.84-10.38l-.05-1,5.6-.11.05.82v-.22c.38,3.57,4.72,5.44,8.29,5.44,4.12,0,8.63-2.31,8.63-6.26a6.21,6.21,0,0,0-.16-1.32c-.66-2.91-4.61-3.41-8.46-3.79-6-.61-13-1.92-13.62-9.94v.06a10.4,10.4,0,0,1,2.09-7.31c2.58-3.35,7.2-5.11,11.65-5.11,5.93,0,12.08,3.08,13.07,10.11Z"/><path class="cls-2" d="M287.43,4.63c8.3,0,12.47,6.43,12.47,12.86s-4.17,12.8-12.47,12.8H279v12.8h-5.6V4.63Zm0,20.16c4.67,0,7-3.63,7-7.25s-2.31-7.31-7-7.31H279V24.79Z"/><rect class="cls-2" x="303.87" y="4.63" width="5.55" height="38.54"/><path class="cls-2" d="M321.84,23.58h6.48a6.56,6.56,0,0,0,7-6.7,6.54,6.54,0,0,0-7-6.65h-8.51V43.17h-5.5V4.63h14c8.35,0,12.53,6.15,12.53,12.25a11.58,11.58,0,0,1-9.94,11.76L343,43.17h-7.2l-14-17Z"/><path class="cls-2" d="M348.76,10a19.43,19.43,0,0,1,27.74,0,19.77,19.77,0,0,1,0,27.8,19.43,19.43,0,0,1-27.74,0,19.77,19.77,0,0,1,0-27.8Zm23.79,4a14.15,14.15,0,0,0-9.94-4.18,13.79,13.79,0,0,0-9.83,4.18,14.05,14.05,0,0,0,0,19.89A13.79,13.79,0,0,0,362.6,38a14.14,14.14,0,0,0,9.94-24.06Z"/><path class="cls-3" d="M81.66,110.13a2.36,2.36,0,0,1,1.21,1.7l3-.46.51,0,1.33-.27a2.64,2.64,0,0,0,1.19-.1l1.46.09.5-.12,2.32.29.69-.3a6.64,6.64,0,0,1,1.92,1.28,19.21,19.21,0,0,1-8.77,10.18q13-.87,10.36,7.84-5.31,7.92-15.68,9.12a5,5,0,0,1-2.27,2,4.62,4.62,0,0,1-1.08-1.36,6.75,6.75,0,0,1-2.43-1.14,2.73,2.73,0,0,1,2.52-3.16v-2.62l.2-.47.1-1.66.19-.62.2-.35a9.73,9.73,0,0,1,0-2.14,4.14,4.14,0,0,1,.24-1.3q-2.37.2-2.22-2.09a2.42,2.42,0,0,1,2.43-1.17l.22-1.15a5,5,0,0,1,.32-2.78,6.8,6.8,0,0,1,.13-2.12l.08-1.66.19-.64q-4.59-.59-7.22,4.67-2.7.53-2.86-2.29a21.93,21.93,0,0,1,9.95-5,2.37,2.37,0,0,0,.23-1.47A2.73,2.73,0,0,0,81.66,110.13Zm8.59,14.47a8.44,8.44,0,0,1-3.49.14l-1,.43-2.16,0a11.06,11.06,0,0,1-2.2.87l-.32,5.24-.2.49a3.28,3.28,0,0,1-.11,1.49l.16.33-.26,1.44A5.65,5.65,0,0,1,82,137.14l.36-.16a16,16,0,0,0,12.39-7.17Q96.86,125.18,90.25,124.6ZM89.12,113a2.8,2.8,0,0,1-1.67,0l-.18.32a8,8,0,0,0-4.87,1,24.76,24.76,0,0,1-.24,4.09l-.07,1.34-.22.47.14.53a8.2,8.2,0,0,0-.12,2.29,21.92,21.92,0,0,1,3.27-2l.34-.13,2.09-1.71a13.58,13.58,0,0,0,4.59-4.66l.7-.78A6.6,6.6,0,0,0,89.12,113Z"/><path class="cls-3" d="M109.39,126.85a2.31,2.31,0,0,1,1.57,1,5,5,0,0,1-.69,2.09q.5,5.76,5.8,2.7.77-.15.81.75a9.63,9.63,0,0,1-6,2.43l-.41-.49a10.25,10.25,0,0,1-1.62-2.12l-.13-.26.11-.25-.39-.1q-3.23,6-7.45,3.9a4.91,4.91,0,0,0-.95,1.72l-.26.13-.48.8-.25.28a1,1,0,0,1,0,.75q-3.19.28.44-5.29a2.71,2.71,0,0,0,.06-1.41l.08-.9.1-1.17a4.63,4.63,0,0,1,.94-1.84.57.57,0,0,1,0-.51,3.16,3.16,0,0,1,1.41-.59,4.66,4.66,0,0,1,1.45,1.11,5.13,5.13,0,0,1-.45,1.43,12.25,12.25,0,0,1-.47,1.7l-.57,1.46q1.78,2.36,3.43-1.06a8.63,8.63,0,0,0,3-5.52A4.07,4.07,0,0,1,109.39,126.85Z"/><path class="cls-3" d="M133.7,117a2,2,0,0,1,1.82,2.26,2.43,2.43,0,0,1-.94,1.3,9.93,9.93,0,0,1-1.75,3.64l-.13.35a7.25,7.25,0,0,1-1.37,2.22,10.24,10.24,0,0,1-2,2.88,5.38,5.38,0,0,0-.5,1.89l-.28.18.18.77a10.92,10.92,0,0,0,1.27,6.19,5.46,5.46,0,0,0,1.88.24,4,4,0,0,0,1.27-1,12.09,12.09,0,0,0,2.39-2.14l1.23-1.29.87-.81q1.61-1,.84.74A10.51,10.51,0,0,1,137,137a4.82,4.82,0,0,1-1.27,1.15l-.27.5a14.69,14.69,0,0,1-2.53,1.66l-.28.33-1,0q-5.31,1.48-5.2-6.49a16.43,16.43,0,0,1-8.58,3.61l-1.46-.55a3.6,3.6,0,0,1-.8-1.84,3.69,3.69,0,0,1-.65-1.53l-.3-.3.54-.36a3.73,3.73,0,0,1,.26-1.4l1.51-1.64.84-.81a2.63,2.63,0,0,0,1-1l.71-.34a13.74,13.74,0,0,1,2.14-1.64l.82-.64a8.84,8.84,0,0,0,1.72-.73,3.29,3.29,0,0,0,1.72-.19l.44,0a6.07,6.07,0,0,0,1.49.72,9.7,9.7,0,0,0,1.73-4l1.76-2.74.43-.31a1.92,1.92,0,0,0,.26-.67Zm-9.17,9.88a18.63,18.63,0,0,0-7.15,5.78,3.12,3.12,0,0,1,1.08,2,13.68,13.68,0,0,0,6.4-3.23Q129.22,128,124.53,126.91Zm5.92-2.14q1.21-2.38,2.17-4t-.2-.1A13.11,13.11,0,0,0,130.45,124.77Z"/><path class="cls-3" d="M147.36,125.3a2.32,2.32,0,0,1,1.57,1,5,5,0,0,1-.69,2.09q.5,5.76,5.8,2.7c.52-.1.78.15.81.74a9.63,9.63,0,0,1-6,2.43l-.41-.49a10.26,10.26,0,0,1-1.62-2.12l-.13-.26.11-.25-.39-.11q-3.23,6-7.45,3.9a4.91,4.91,0,0,0-1,1.72l-.26.13-.48.8-.25.28a1,1,0,0,1,0,.75q-3.2.28.44-5.29a2.72,2.72,0,0,0,.06-1.41l.08-.9.1-1.17a4.64,4.64,0,0,1,.95-1.84.57.57,0,0,1,0-.51,3.16,3.16,0,0,1,1.41-.59,4.69,4.69,0,0,1,1.45,1.11,5.14,5.14,0,0,1-.45,1.43,12.18,12.18,0,0,1-.46,1.7l-.57,1.46q1.77,2.36,3.43-1.06a8.64,8.64,0,0,0,3-5.52A4,4,0,0,1,147.36,125.3Z"/><path class="cls-3" d="M156.5,127.15l1.6-.07.34.62a5.17,5.17,0,0,1-1.07,2.26,9.75,9.75,0,0,0-.46,1.94l-.09.2-.3.33a3.67,3.67,0,0,1-.37,1.72,11.58,11.58,0,0,1-.33,1.91l-.07.63-.09.73-.24,1.81,0,.41-.08.54-.16,1.49-.07.54-.07.63-.26,1.47a7.77,7.77,0,0,0-.24,1.81l-.37,1.59-.07.76-.06.83a2.13,2.13,0,0,0-.18,1l-.2.42,0,.41-.18.32a3.46,3.46,0,0,1-.59,1.6l-.16.86q-4.2,6-6.7-4.05a14.79,14.79,0,0,0,.09-2.63,12.57,12.57,0,0,0,.45-2l.29-.55,1.69-5,.51-.65.8-1.3,1.14-.14a5.32,5.32,0,0,1-.42,2.13V140a5.7,5.7,0,0,0-.86,2,5.84,5.84,0,0,0-.48,1.28l-.3.33-.27,1.18-.21.32a3.61,3.61,0,0,1-.26,1.4l-.07.73-.11.32a4,4,0,0,1-.15,1.17,16.86,16.86,0,0,0,.76,3.13l0,.41a5.28,5.28,0,0,0,1.43,1.74,9.67,9.67,0,0,0,1.85-4.09l.18-.23a13.92,13.92,0,0,1,.52-2.74l.1-.64,0-.44.21-.32.08-.42.15-1.71a4.61,4.61,0,0,0,.14-1.37l.09-.64c0-.42.08-.72.11-.9l.09-.59a6,6,0,0,1,.13-.64,9.93,9.93,0,0,0,0-1.48,3.19,3.19,0,0,0,.18-1l.19-.74,0-.63.8-3.63a4.15,4.15,0,0,1,.46-1.28l.24-1.81.29-.52,0-.63Zm2.82-10.73,2,2.13a12.12,12.12,0,0,0-.45,2.13l-.07.64-.1.42q-1.45.18-1.47-2.56a1.75,1.75,0,0,1-.78-1.35A1.84,1.84,0,0,1,159.31,116.42Zm.1,0,1.74,1.6A1.53,1.53,0,0,0,159.41,116.42Z"/><path class="cls-3" d="M167.68,120.21a8.07,8.07,0,0,0,2.27.2l.87.38a8.54,8.54,0,0,1,.49,2A25.79,25.79,0,0,1,161,132.61a3,3,0,0,0,1.48,1.76,3.66,3.66,0,0,0,3-.27l.3.13,2.19-1.21.42-.31.83-.45.4-.31,1.36-1.17a15,15,0,0,0,1.91-1.34,7,7,0,0,1,1.46-1.15q1.26-.68,1,.49l-1.11,1.48a9.85,9.85,0,0,1-2.47,2l-1.65,1.33a1.17,1.17,0,0,1-.55.29,5.8,5.8,0,0,0-.94.74,5,5,0,0,0-1.95,1.08,4.68,4.68,0,0,0-2.06.64l-2.55.1-.71-.24q-6.83-5.36,3.61-14.95a2.13,2.13,0,0,0,1.66-.92l.42.13Zm.09,2.11a10.35,10.35,0,0,0-6.58,7.75,8.46,8.46,0,0,0,3.82-2.71,8.63,8.63,0,0,0,3.62-4.79Z"/><path class="cls-3" d="M175.11,125.49a5.32,5.32,0,0,1,1.41,1.16A3.23,3.23,0,0,1,176,128a3.46,3.46,0,0,1-.69,1.56l.16.46-.4.92.16.45a6,6,0,0,0,3.34-3.93l1.32-1.12,1.68.08a3.07,3.07,0,0,1-.32,3.51l.16.46a15.16,15.16,0,0,0,2.5-1.78l.46,0,1.32-1.12a6.65,6.65,0,0,0,.87-1.25,3.1,3.1,0,0,1,1.63-.53,2.44,2.44,0,0,1,1.26,1l0,1.07a5.42,5.42,0,0,0-.09,5l-.13.32a4.92,4.92,0,0,0,2.12.06,11,11,0,0,1,2.09-1.15q4.46-2.52,1.26,1.16l-.75.64-.59.34q-7.55,4.25-6.86-4.29l-.44,0q-6.18,5.11-8.25,2.62-4.39,3.68-5.5-.7a8.62,8.62,0,0,0,.81-2.76c0-.1.09-.21.28-.33l-.16-.28a10.08,10.08,0,0,0,.68-1.85l-.17-.46Z"/><path class="cls-3" d="M208.52,122.49l.9.09a2.26,2.26,0,0,1,.8,1.13,7.92,7.92,0,0,1-.55,2.06l-.08.88-.27,1.18q-.56,2.31-1.17,4.59l-.53,2.55-.95,4.78-1.37,10.46q-.34,2.37-.58,3.73t-.52,3.46l-.24.76a1.3,1.3,0,0,1-1.3-1l.27-4,.36-3.59.13-1.54q.23-.79.92-5.33l.13-1.42.31-1.81q.15-1,1.34-6.54l.45-1.43.1-.51.1-.51a11.56,11.56,0,0,1,.67-2.58l0-.39.33-.91.33-1.35-.25-.14a29.7,29.7,0,0,0-6.07,4.79l-.11.27a8.37,8.37,0,0,1-2.85,2.16l-.11.25q-3.3.65-3.22-3.81a8.09,8.09,0,0,1-1.82,2.48l-.59,1A6.76,6.76,0,0,0,192,134l-.13.25a3.7,3.7,0,0,0-.86,1.06l-.87.16a1.77,1.77,0,0,1,0-1,10.47,10.47,0,0,0,.7-1.29l.37-.4,1.68-3,.11-.37,1-1.21.23-.4a7.1,7.1,0,0,1,.72-1.56L195,126a4.86,4.86,0,0,0,1.23-1.34l.22-.52a2.09,2.09,0,0,1,1.82.58,12.6,12.6,0,0,1-.66,2.82,4.78,4.78,0,0,1-.29,2.32l.3.89a2.73,2.73,0,0,0,1.62-.77l2.08-2,4.81-4.23.76-.4.23-.28,1.15-.44Z"/><path class="cls-3" d="M225.19,124.34l1.6-.07.34.62a5.17,5.17,0,0,1-1.08,2.26,9.86,9.86,0,0,0-.45,1.94l-.09.2-.3.33a3.68,3.68,0,0,1-.37,1.72,11.71,11.71,0,0,1-.33,1.91l-.07.63-.09.73-.24,1.81,0,.41-.08.54-.16,1.49-.07.54-.07.64-.26,1.47a7.7,7.7,0,0,0-.24,1.81l-.37,1.59-.07.76-.06.83a2.13,2.13,0,0,0-.18,1l-.2.42,0,.41-.18.32a3.47,3.47,0,0,1-.59,1.6l-.16.86q-4.2,6-6.7-4.05a14.81,14.81,0,0,0,.08-2.63,12.57,12.57,0,0,0,.45-2l.29-.55,1.69-5,.51-.65.8-1.3,1.14-.14a5.34,5.34,0,0,1-.42,2.13v.31a5.7,5.7,0,0,0-.86,2,5.78,5.78,0,0,0-.48,1.28l-.3.33-.27,1.18-.21.32a3.62,3.62,0,0,1-.26,1.4l-.07.73-.11.32a4,4,0,0,1-.15,1.17,16.86,16.86,0,0,0,.76,3.13l0,.41a5.31,5.31,0,0,0,1.43,1.74,9.66,9.66,0,0,0,1.85-4.09l.18-.23a13.92,13.92,0,0,1,.52-2.74l.1-.64,0-.44.2-.32.08-.42.15-1.71a4.57,4.57,0,0,0,.14-1.37l.1-.64c0-.42.08-.72.11-.9l.09-.59a5.92,5.92,0,0,1,.13-.64,9.93,9.93,0,0,0,0-1.48,3.19,3.19,0,0,0,.18-1l.19-.74,0-.63.8-3.63a4.15,4.15,0,0,1,.46-1.28l.24-1.81.29-.52,0-.63ZM228,113.6l2,2.13a12.11,12.11,0,0,0-.45,2.13l-.07.64-.1.42q-1.45.18-1.47-2.56a1.75,1.75,0,0,1-.78-1.35A1.84,1.84,0,0,1,228,113.6Zm.1,0,1.74,1.6A1.54,1.54,0,0,0,228.11,113.6Z"/><path class="cls-3" d="M235.27,119.35q3.82-.3,4.52,3.63,2-3.34,3.4-.53a22.37,22.37,0,0,0-2,3.63,4.34,4.34,0,0,0-.91,1.66l.16.41a4.09,4.09,0,0,0,1.51.21l.93-.45a14.36,14.36,0,0,1,1.87-1.29l.92-.6,1.11-.85.75-.59c.33-.16.44,0,.32.56a4.26,4.26,0,0,1-1.46,1.94q-3.63,4.4-8.22,2.82-4.43,5.09-9.22,1.59Q226.44,123.82,235.27,119.35Zm0,2.09q-5.49,3-5.17,7.89l-.1.51q2.9,3.87,7.17-1.8a.41.41,0,0,1,.09-.64,1.17,1.17,0,0,1-.88-.08Q239.59,121,235.26,121.44Z"/><path class="cls-3" d="M249,111.91l2.11.62-.24,6.62-.15.54a9.65,9.65,0,0,1-.27,2.44l-.12,1.22.19.53q5.54-5.28,10.18-3l.05,1.21a4,4,0,0,1-1.37.93,9.81,9.81,0,0,1-1.5,1.3l-1,1.09a4,4,0,0,0-1.38.74q-.85.74-1.86,1.49l-.84.72,2,1.16a10.45,10.45,0,0,0,3.65-.51l1.38-.23,4-1.21.7-.2,3,0a1.86,1.86,0,0,1-.3,1.06,14.85,14.85,0,0,1-3.79,1.2,20.69,20.69,0,0,1-10.19,2.17l-2.5-1.11-.53-.34a4.92,4.92,0,0,1-3.81.69,4.58,4.58,0,0,1,.08-2.09q1.29-2.34.56-3.52a20,20,0,0,0,.7-12.57A3.79,3.79,0,0,1,249,111.91Zm7.71,10.81q-2.2.36-5.83,4.1Q254.4,124.4,256.74,122.73Z"/><path class="cls-3" d="M274.29,119.94q3.49,1.58,1.28,4.49a9.83,9.83,0,0,1-5.58,4.92,6.36,6.36,0,0,1-6.09.25q-2.46-2.4.23-5.65a2.58,2.58,0,0,1,2.06.55,6.48,6.48,0,0,1-.52,2.67q1.63,1.8,3.44-.29a6.07,6.07,0,0,0,4.21-3.94l-1.1-.25-2.42,2.12-.76.52-.16.3-.46,0-.3.5a1.73,1.73,0,0,1-1-.28,10.09,10.09,0,0,1,6.95-5.92Z"/><path class="cls-3" d="M278,120q4.34-.18,4.36,3.22a5.81,5.81,0,0,1-2.44-.75l-.27.45a5.29,5.29,0,0,1,1.76,1.46l.42.27a8.78,8.78,0,0,1,2.07,1.91l1.31,1.06-.06,1.56q-1.87,3.07-5.72,2.2a6.82,6.82,0,0,1-3.48-5.52l.4-.28.58.41a8.14,8.14,0,0,0,3.12,3.25l.16.28.41-.16q3.25-.13-1.3-3.76Q273.5,121.48,278,120Zm5-11.8a2.54,2.54,0,0,1,1.76,1.34l-.52.87a11.11,11.11,0,0,1-.73,3l-.24,1.15a4.78,4.78,0,0,1-.23,1.54l0,.58-.23,1,0,.41a1.4,1.4,0,0,1-1.57-.35l.41-.75a5.72,5.72,0,0,1,.18-1.54,4.07,4.07,0,0,1,0-1.63,4,4,0,0,0,0-1.63l.27-.42-.33-.84.06-1.58,0-.41Z"/><path class="cls-3" d="M292.3,117.69q6.17.55.62,7.26l-1.27.37a6.77,6.77,0,0,1,1.13-3.77l-.36-1.13a7.19,7.19,0,0,0-4.69,4.08q-3.87,12.31,13.6-.24l.52.8a25.56,25.56,0,0,1-13.28,8,7.24,7.24,0,0,1-3-1.34l-.83-.6Q282.93,122,292.3,117.69Zm2.7-12.41,1.22,0a3.76,3.76,0,0,1,.37,1.83,12.32,12.32,0,0,0-1.45,4.94l-.72,2.56,0,.46-1.08.38a14.28,14.28,0,0,1,.27-5.89l-.11-.46a14,14,0,0,0,1-3.44Z"/><path class="cls-3" d="M305.51,127.85q1.49.28,1,2,.19,1.57-2,.76a5.1,5.1,0,0,1-.62-1.43A2.88,2.88,0,0,1,305.51,127.85Zm5.08-27.32a4.55,4.55,0,0,1,1.53.52,7.73,7.73,0,0,1-.65,2.64l-.19.54a1.25,1.25,0,0,1-.34,1l0,.57a3.32,3.32,0,0,0-.36,1.18l.18.36-.35.3a2.45,2.45,0,0,0-.26,1.22l-.18.66a11.85,11.85,0,0,0-.58,2.08l-.19.54-.63,3.57a15,15,0,0,0-.54,2.77l-.17.42.08.35a16.67,16.67,0,0,1-.6,2.2,8.66,8.66,0,0,1,.16,1.58,1.44,1.44,0,0,1,.12.82,2.2,2.2,0,0,1-1.83,1,2.59,2.59,0,0,1-.79-1.8,5.11,5.11,0,0,1,.56-1.06l.26-1.21.19-.79.28-.53,0-.66.17-.66,0-.34a9.16,9.16,0,0,0,.3-1.55l.08-.65c.09-.07.11-.22.05-.46a11.76,11.76,0,0,0,.64-2.54,5.24,5.24,0,0,0,.25-2.12,3.79,3.79,0,0,0,.63-1.39,4.89,4.89,0,0,1,.45-2l-.1-.23a6.61,6.61,0,0,0,.59-3l.31-.75a3.82,3.82,0,0,1,.21-1.81Z"/></g></g></svg>