<svg xmlns="http://www.w3.org/2000/svg" viewBox="0 0 96.4 85"><defs><style>.cls-1{fill:#000;}</style></defs><title>icon-project</title><g id="Warstwa_2" data-name="Warstwa 2"><g id="Warstwa_1-2" data-name="Warstwa 1"><path class="cls-1" d="M72.4,47.9a1.87,1.87,0,0,0,.5-1.4,2,2,0,0,0-.6-1.3h0L49.6,24.5a1.87,1.87,0,0,0-2.6,0L24,45.2a2,2,0,0,0-.2,2.8,1.68,1.68,0,0,0,1.4.6,1.87,1.87,0,0,0,1.4-.5l2.5-2.4V68.8a2,2,0,0,0,2,2H65a2,2,0,0,0,2-2V45.7l2.5,2.4a2.39,2.39,0,0,0,1.4.5A1.81,1.81,0,0,0,72.4,47.9ZM52,66.8H44.4V56.5H52Zm11.1.1H56V54.6a2,2,0,0,0-2-2H42.4a2,2,0,0,0-2,2V66.8H33.3V42.2L48.2,28.7,63.1,42.2Z"/><path class="cls-1" d="M0,74.9A10,10,0,0,0,10.1,85H86.4a10.05,10.05,0,0,0,10-10.1V9.7A9.77,9.77,0,0,0,86.7,0H80.9a2,2,0,0,0-2,2v9.2H17.5V2a2,2,0,0,0-2-2H9.7A9.77,9.77,0,0,0,0,9.7ZM82.9,4h3.8a5.63,5.63,0,0,1,5.7,5.7V66.9l-.8-.4A10.33,10.33,0,0,0,86.4,65H82.9ZM17.5,66.9V15.2H78.9V66.9a2,2,0,0,0,2,2h5.4a6.19,6.19,0,0,1,6,5V74l.1.1v.8a6,6,0,0,1-6,6.1H10.1a6,6,0,0,1-6-6L4,74.4a1,1,0,0,1,.1-.4v.1a6,6,0,0,1,6-5.1h5.4A2.16,2.16,0,0,0,17.5,66.9ZM4,9.7A5.68,5.68,0,0,1,9.6,4h3.8V64.9H9.9a8.86,8.86,0,0,0-5.2,1.5l-.8.5Z"/></g></g></svg>
