<svg xmlns="http://www.w3.org/2000/svg" viewBox="0 0 1067.05 1067.05"><defs><style>.cls-1{fill:#000;}</style></defs><title>icon-tools</title><g id="Warstwa_2" data-name="Warstwa 2"><g id="Warstwa_1-2" data-name="Warstwa 1"><path class="cls-1" d="M0,980.05q0-8.5,0-17A50.48,50.48,0,0,0,1.95,957a74.15,74.15,0,0,1,18.62-37.53c1.25-1.34,2.51-2.68,3.73-4L397,499.49c.87-1,1.65-2,2.6-3.18-.89-1-1.62-1.86-2.44-2.65-9.64-9.45-19.25-18.93-29-28.31C345,442.87,322.15,420,298.38,398.08c-47.15-43.45-98.86-80.62-155.82-110.29a26.61,26.61,0,0,0-10.32-3.36,103.63,103.63,0,0,1-11.86-1.69C57.71,270.35-.44,213.35,3.85,134.78,5.23,109.39,13.3,86.25,27.14,65c6.36-9.77,15.11-9.48,24.25-4a12.79,12.79,0,0,1,4,4.37q25.09,41.48,50,83.07c1.55,2.59,3.29,3.71,6.34,3.62,16.73-.46,31.18-6.32,43.3-17.85a55.05,55.05,0,0,0,12.69-17.87c-.91-1.67-1.75-3.29-2.65-4.88q-23.44-41.86-46.9-83.71c-5.3-9.46-2.76-18.9,6.63-24.37C127.07,2,129.59,1.11,132,0h23c5.55,1,11.11,1.84,16.65,2.86C232.38,14,278.16,61.71,286.05,122.71A70.6,70.6,0,0,0,294.3,148C325.43,205.29,364,257.22,408.82,304.41c27.32,28.74,55.68,56.48,83.59,84.66a17.51,17.51,0,0,0,2.08,1.54c1.25-1.35,2.39-2.55,3.5-3.79q36.55-40.75,73.13-81.48c2.09-2.32,4.43-5,7.2-6,4.56-1.55,7.09-4.7,9.33-8.4a137.15,137.15,0,0,0,6.82-12.2c15.61-33,9.38-69.77-16.55-95.31C567.83,173.54,557.27,164,546.36,155,528.62,140.42,509,128.9,486.91,122c-20.56-6.45-41.76-8.39-63.12-8.81-18.49-.37-37-.17-55.49-.24a39.88,39.88,0,0,1-6-.28c-8.31-1.3-13.9-6.93-15.13-15.07-1.28-8.45,2.13-14.67,10.39-18.41,30.65-13.89,61.79-26.56,93.85-36.89,36.73-11.84,74.15-20.51,112.77-23,43.25-2.75,85.42,2.66,126.25,17.6,41.92,15.33,80.35,36.19,112,68.5,28.33,28.93,57.33,57.21,85.88,85.92a112.9,112.9,0,0,1,23.8,34.93c8.54,19.76,13.77,40.36,13.13,62-.35,12,5.27,20.13,14.22,26.61,4.31-2.46,8.28-4.9,12.41-7a27.81,27.81,0,0,1,14.5-3c9.13.46,16.72,4.26,23.07,10.58q31.54,31.38,62.92,62.93a50.19,50.19,0,0,1,12.9,21.11c.65,2.18,1.2,4.39,1.8,6.59v18c-.61,2.37-1.18,4.74-1.84,7.1-2.64,9.49-8.72,16.56-15.58,23.37Q990,513.66,930.74,573.16c-2.59,2.59-5,5.32-7.44,8.08a41,41,0,0,1-17.06,11.85,53.83,53.83,0,0,1-33.4,1.12,44.26,44.26,0,0,1-20.13-11.56q-31.06-31.16-62.15-62.29a49.62,49.62,0,0,1-3.78-4c-8.08-10.14-10.94-21.52-7.76-34.21,1.38-5.48,4.65-9.85,8.9-13.89-7.25-7-14.88-12.59-25.43-12.32-3.66.09-7.33.06-11,0-20.27-.44-39.64-4.62-57.71-14.08-1.15-.6-2.31-1.19-3.76-1.93l-69.23,77.46c1.48,1.52,2.73,2.83,4,4.1q52,51.94,104,103.92a635.61,635.61,0,0,0,55.15,49.25c47.12,37.5,96.91,71.24,147.2,104.25a15.59,15.59,0,0,0,6,1.93c4.11.65,8.3.78,12.4,1.48a142.39,142.39,0,0,1,115.63,113.49c.71,3.73,1.25,7.49,1.87,11.24v32c-.47,2.91-.88,5.84-1.42,8.74a142.91,142.91,0,0,1-19.37,49.48,23.27,23.27,0,0,1-14.48,10.61,15.1,15.1,0,0,1-17.13-7c-15.91-27.36-31.9-54.68-47.64-82.13-2.06-3.59-4.4-4.73-8.34-4.54-21.37,1-38.32,10.21-51,27.32-5.77,7.77-5.7,7.81-.85,16,15.62,26.38,31.11,52.82,46.89,79.1,8.32,13.86-4.18,27.14-14.34,27.22-13.84.11-27.63-.06-41.32-2.66-61.21-11.62-108-63.52-113.16-125.54a14.18,14.18,0,0,0-2.17-6.45c-28.32-42.4-57-84.57-87.7-125.29-17.57-23.3-35.49-46.34-56.06-67.09-36.6-36.93-73.49-73.58-110.27-110.34-.9-.9-1.95-1.64-3-2.52-1.26,1.34-2.3,2.41-3.3,3.52q-185.56,207.65-371.1,415.32a72.5,72.5,0,0,1-37.58,22.43c-2.24.56-4.47,1.19-6.7,1.79H86a30.53,30.53,0,0,0-3.2-1.08c-14-3.11-26.4-9.24-36.76-19.16-8.54-8.18-16.85-16.62-25.12-25.08A69.71,69.71,0,0,1,1.89,985,29.21,29.21,0,0,0,0,980.05ZM964.45,340.78c-4.14,4.5-8.95,7.75-14.8,9-14.59,3.24-27.41-.08-38.07-10.76-2.59-2.59-5-5.38-7.33-8.18a60.55,60.55,0,0,1-14.45-39c-.16-9.3-.87-18.62-1.87-27.87-2-18.94-10.38-35-23.65-48.47C838,189,811.28,163,785.22,136.24a254.24,254.24,0,0,0-85.35-57.85c-48.48-20.24-98.42-27.87-150.5-22.16-30.22,3.31-59.69,10.2-88.74,19a29.48,29.48,0,0,0-3.35,1.5c.52.48.62.65.75.68a15,15,0,0,0,1.93.44A197.92,197.92,0,0,1,536,103.78c25.34,14.84,47.86,33.33,68.23,54.32,19.14,19.72,29.52,43.81,31.53,71.18,2.17,29.39-5.93,56-23.32,79.8-1.07,1.46-2.16,2.91-4.06,5.46a31.46,31.46,0,0,1,4.57,3.19q34,33.87,67.91,67.83c3.18,3.18,6.36,6.37,9.72,9.36,10.39,9.25,22.15,16.17,35.94,18.59,9.64,1.69,19.49,2.25,29.25,3.2,7.27.71,14.69.6,21.83,2,12.54,2.41,22.17,10.18,31.43,18.55,11.3,10.22,14.1,23.32,13.42,37.64-.31,6.64-3.71,12-8.8,16.62,1.43,1.47,2.67,2.78,3.94,4.05,18.5,18.5,37.25,36.75,55.39,55.6,9.75,10.12,20.48,9.55,29.77.15,40.42-40.88,81.2-81.4,121.85-122.05a50.42,50.42,0,0,0,3.78-4,16.51,16.51,0,0,0,.46-20,39.29,39.29,0,0,0-4-4.46q-28.64-28.62-57.33-57.2C966.63,342.68,965.61,341.83,964.45,340.78ZM58.51,933.54c-5.65,6.7-11.72,12.74-16.41,19.71-9.52,14.17-7.36,32.49,4.82,44.43,8.69,8.51,17.63,16.78,26.73,24.85,7.93,7,17.38,9.48,27.89,7.82,9.81-1.55,17.68-6.37,24.25-13.74Q174.7,961.74,223.74,907l72-80.5,72-80.52c24.1-27,48.42-53.74,72.26-80.94,23.7-27,48.34-53.22,71.19-81,22.2-27,46.28-52.5,69.59-78.62a58.67,58.67,0,0,1,5.18-4.65,55.46,55.46,0,0,0,4.82-4.27q33.55-37.41,67-74.9c1.1-1.23,2.13-2.52,2.51-3l-74.47-74.47L129.51,854.47c1.49,1.55,2.72,2.86,4,4.14,8.48,8.49,17,16.9,25.43,25.49,6.52,6.67,7.2,15.6,2,22.77-6.53,9.09-18.48,10.38-26.55,2.6-8.39-8.1-16.53-16.47-24.79-24.71-1.16-1.15-2.39-2.24-3.93-3.67L82.59,907c1.48,1.56,2.58,2.78,3.73,3.95q11.12,11.15,22.27,22.28c4.1,4.09,6.56,8.9,5.89,14.78-.82,7.23-4.76,12.53-11.5,15.1s-13.15,1.38-18.44-3.86c-7.34-7.27-14.63-14.6-22-21.88C61.44,936.18,60.2,935.11,58.51,933.54ZM550,596.66c2,1.72,3.63,2.91,5,4.32,34.42,34.39,69,68.65,103.15,103.27,12.63,12.79,24.4,26.43,36.55,39.7,1.22,1.33,2.38,2.72,3.88,4.43,4.7-4.77,9-9.4,13.6-13.75,7.31-6.93,17.67-6.75,24.69.2s7.2,17.34.31,24.68c-4.34,4.61-8.93,9-13.39,13.47-1,1-1.94,2.17-3,3.31l21.05,27.83c1.34-1.23,2.33-2.08,3.25-3,5.55-5.52,11-11.12,16.65-16.58,4.16-4,9.18-6.11,15-5,7.13,1.33,12,5.53,14.32,12.45s.3,12.8-4.68,17.82c-6.8,6.87-13.67,13.67-20.48,20.52-1,1-1.9,2.15-2.86,3.25L792,875c16.19-43.25,45.49-72.33,88.41-88.69-2.15-1.47-3.62-2.48-5.1-3.48-29.46-19.79-58.62-40-86.87-61.5-24.81-18.88-49-38.52-71-60.67q-57-57.22-114.09-114.25c-1.39-1.39-2.81-2.76-4.55-4.47Zm-78.67-180A42.65,42.65,0,0,1,466.4,413q-29-28.92-58-57.93C360.31,307,317.18,254.86,282,196.44a22,22,0,0,0-2.31-2.66c-15.67,39.69-43.29,66.76-82.87,82.37,1.71,1.17,2.75,2,3.86,2.63,55,33.08,104.16,73.49,149.4,118.83q34.94,35,69.86,70.08c.9.9,1.92,1.67,3.16,2.73ZM164.78,38.69l11.08,19.14q13.9,24,27.82,48c2.21,3.79,3.45,7.8,1.72,11.91a162.57,162.57,0,0,1-9.13,19.38c-10.7,18.23-26.1,31.31-45.36,40-18,8.07-36.93,9.54-56.24,8.64a16.91,16.91,0,0,1-6.63-2c-3.81-1.94-6.39-5.21-8.52-8.89Q63.21,146.74,46.8,118.72c-.9-1.54-1.9-3-3-4.78C33.53,143,39.9,190.87,75,222.47c33.43,30.14,84.85,35.31,124.22,11.85,41.14-24.52,59.75-70.14,50.23-113.27C238.79,73,199.95,43.76,164.78,38.69Zm861.77,912.23c11.46-37.36-.55-86.81-39.49-115.4a105.12,105.12,0,0,0-124.94.22c-37.28,27.74-52.78,79-38.13,119.81,16.18,45.12,55,67.48,81,70-1-1.75-1.81-3.35-2.72-4.92-11.85-20.47-23.63-41-35.6-61.38-3.17-5.4-3.69-10.55-.43-16a20.42,20.42,0,0,0,1.62-3.64,77.31,77.31,0,0,1,11.94-21.27C898,894.82,921.57,881,951.45,878.86c8.27-.58,16.63-.05,25,.14a13.22,13.22,0,0,1,9.25,4.45,39.29,39.29,0,0,1,5.38,7.14c10.9,18.52,21.69,37.1,32.53,55.65C1024.37,947.64,1025.3,949,1026.55,950.93Z"/></g></g></svg>
