<svg xmlns="http://www.w3.org/2000/svg" viewBox="0 0 35.13 34.16"><defs><style>.cls-1,.cls-2,.cls-3{fill:none;stroke:#000;stroke-linecap:round;stroke-linejoin:round;}.cls-1{stroke-width:1.44px;}.cls-2{stroke-width:1.44px;}.cls-3{stroke-width:1.44px;}</style></defs><title>icon-brush_1</title><g id="Warstwa_2" data-name="Warstwa 2"><g id="Warstwa_1-2" data-name="Warstwa 1"><path class="cls-1" d="M18.75,26.81,7.34,15.41,5.18,17.57l2,2c1,1,1.44,1.9,0,4.09s-3.77,1.61-5.32,3.16a3.86,3.86,0,1,0,6.4,3.93c.85-2.61.2-2.49,2.22-3.79s3.13-1,4.09,0l2,2,2.16-2.16ZM9,13.59l11.6,11.6"/><path class="cls-2" d="M10.12,11.29,22.86,24m0-1.36,9.57-8.38c1.55-1.35-3-5.76-3.82-6.76C24.92,3,20-2,18.94,2.41l-7.58,8.78m7.58-8.78c.52.58,2.15,2.14,1.32,2.76-2.29,1.41-3,2.63-2.17,3.65.6.74,2.1,1.39,3,.19,1.19-1.59,5.63-3.2,4,0-.7,1.39.91,2.39,2.27,1.35.88-.67,2.55,2.59,3.62,4.83"/><path class="cls-3" d="M32.13,18.64c-1.29,3.6-2.58,4.94-2.58,6a2.24,2.24,0,0,0,2.43,2,2.24,2.24,0,0,0,2.43-2c0-1.08-2.44-2.63-2.28-6Z"/></g></g></svg>
